<svg width="70" height="70" viewBox="0 0 70 70" fill="none" xmlns="http://www.w3.org/2000/svg">
<path d="M35.0007 64.1663C18.8923 64.1663 5.83398 51.108 5.83398 34.9997C5.83398 18.8914 18.8923 5.83301 35.0007 5.83301C51.109 5.83301 64.1673 18.8914 64.1673 34.9997C64.1496 51.1007 51.1016 64.1487 35.0007 64.1663ZM20.7673 54.0893L20.7527 54.1184C27.4116 59.1069 36.1944 60.2497 43.9082 57.1313C42.8025 51.1851 41.1635 45.3506 39.0111 39.6984C34.0671 41.4222 29.5471 44.1794 25.7519 47.7863C23.8815 49.5573 22.2623 51.5759 20.9394 53.7859L20.919 53.818V53.7888L20.8665 53.8909L20.8315 53.9493L20.8111 53.9872L20.7615 54.0922L20.7673 54.0893ZM48.9394 38.0476C47.5034 38.0496 46.0691 38.1471 44.6461 38.3393C46.5046 43.5325 47.9671 48.8589 49.0211 54.273C53.9777 50.7 57.3467 45.3358 58.4127 39.3193C55.327 38.4679 52.1404 38.0372 48.9394 38.0388V38.0476ZM11.1336 34.8684V35.0318C11.1389 40.651 13.1272 46.0881 16.7482 50.3851C21.439 43.1387 28.3777 37.6313 36.4998 34.708L36.8469 34.6088C36.3307 33.4684 35.8465 32.4505 35.3623 31.4997C27.5804 33.6816 19.542 34.8146 11.4602 34.8684H11.1336ZM48.0265 33.1009C51.6456 33.1143 55.2566 33.4441 58.8182 34.0868C58.6326 29.153 56.9068 24.4011 53.8832 20.498C50.3547 24.4441 45.9629 27.5223 41.0498 29.493L41.1344 29.458L41.044 29.4959C41.5661 30.5838 42.024 31.6018 42.4061 32.5088C42.4965 32.7247 42.5723 32.9113 42.6423 33.0922L42.7619 33.3838C44.51 33.1899 46.2677 33.0954 48.0265 33.1009ZM24.4336 13.6409C18.0907 16.7716 13.4645 22.5559 11.8044 29.4318C18.6013 29.3267 25.3656 28.4679 31.9732 26.8709H32.0111H32.0548L32.084 26.833L32.2415 26.7951H32.259L32.3757 26.7718H32.4019H32.4223L32.4836 26.7543L32.6002 26.7251L32.6673 26.6959L32.7315 26.6784H32.7607H32.7898C28.9019 19.833 24.8769 14.2534 24.4307 13.6409H24.4336ZM35.0007 11.1967C33.404 11.1927 31.8108 11.3441 30.2436 11.6488C33.2991 15.8826 36.103 20.2925 38.6407 24.8555C43.1852 23.2369 47.2383 20.4792 50.4123 16.8463C46.1035 13.2023 40.6439 11.2009 35.0007 11.1967Z" fill="#A4D1CC"/>
</svg>
