<svg width="22" height="22" viewBox="0 0 22 22" fill="none" xmlns="http://www.w3.org/2000/svg">
<path d="M11.0002 20.1664C5.93986 20.1608 1.83905 16.06 1.8335 10.9997V10.8164C1.93427 5.77884 6.08187 1.76698 11.1199 1.83383C16.158 1.90068 20.1977 6.02117 20.1648 11.0596C20.1319 16.098 16.0387 20.1653 11.0002 20.1664ZM11.0002 3.66636C6.95007 3.66636 3.66683 6.9496 3.66683 10.9997C3.66683 15.0498 6.95007 18.333 11.0002 18.333C15.0503 18.333 18.3335 15.0498 18.3335 10.9997C18.329 6.95149 15.0484 3.6709 11.0002 3.66636ZM9.671 15.583L8.37483 14.2859L11.6152 11.0455L8.37483 7.80511L9.671 6.50802L14.2085 11.0455L9.67191 15.583H9.671Z" fill="#E59B9C"/>
</svg>
