<svg width="22" height="22" viewBox="0 0 22 22" fill="none" xmlns="http://www.w3.org/2000/svg">
<path d="M11.0002 20.1663C5.93755 20.1663 1.8335 16.0623 1.8335 10.9997C1.8335 5.93706 5.93755 1.83301 11.0002 1.83301C16.0628 1.83301 20.1668 5.93706 20.1668 10.9997C20.1613 16.06 16.0605 20.1608 11.0002 20.1663ZM11.0002 3.66634C6.97178 3.66736 3.69842 6.91763 3.66888 10.9459C3.63935 14.9742 6.8647 18.2721 10.8926 18.3322C14.9206 18.3923 18.2429 15.192 18.3335 11.1647V12.7991V10.9997C18.3289 6.95147 15.0484 3.67089 11.0002 3.66634ZM12.3293 15.4913L7.79183 10.9538L12.3293 6.41634L13.6255 7.71251L10.3842 10.9538L13.6246 14.1952L12.3302 15.4913H12.3293Z" fill="#E59B9C"/>
</svg>
