<svg width="16" height="15" viewBox="0 0 16 15" fill="none" xmlns="http://www.w3.org/2000/svg">
<path d="M11.3333 13.75H4.66667C3.93029 13.75 3.33333 13.1904 3.33333 12.5V4.375H2V3.125H4.66667V2.5C4.66667 1.80964 5.26362 1.25 6 1.25H10C10.7364 1.25 11.3333 1.80964 11.3333 2.5V3.125H14V4.375H12.6667V12.5C12.6667 13.1904 12.0697 13.75 11.3333 13.75ZM4.66667 4.375V12.5H11.3333V4.375H4.66667ZM6 2.5V3.125H10V2.5H6ZM10 11.25H8.66667V5.625H10V11.25ZM7.33333 11.25H6V5.625H7.33333V11.25Z" fill="#3F3F3F"/>
</svg>
