<svg width="26" height="26" viewBox="0 0 26 26" fill="none" xmlns="http://www.w3.org/2000/svg">
<circle cx="13" cy="13" r="12.5" stroke="#E59B9C"/>
<path d="M10.3275 19.4508H15.6782C16.4523 19.4508 16.9043 19.0384 16.9382 18.2699L17.2941 10.1055H18.0738C18.362 10.1055 18.5823 9.87953 18.5823 9.59703C18.5823 9.31452 18.3563 9.09982 18.0738 9.09982H15.6217V8.2523C15.6217 7.34828 15.0397 6.81152 14.0679 6.81152H11.9209C10.949 6.81152 10.3671 7.34828 10.3671 8.2523V9.09982H7.92623C7.64373 9.09982 7.41772 9.32017 7.41772 9.59703C7.41772 9.88518 7.64373 10.1055 7.92623 10.1055H8.7116L9.07321 18.2699C9.10146 19.0384 9.55347 19.4508 10.3275 19.4508ZM11.5423 8.30315C11.5423 8.0489 11.7175 7.88504 12 7.88504H13.9945C14.277 7.88504 14.4521 8.0489 14.4521 8.30315V9.09982H11.5423V8.30315ZM11.1863 17.7162C10.9603 17.7162 10.8021 17.5693 10.7965 17.3433L10.627 11.3429C10.6213 11.1169 10.7795 10.9644 11.0168 10.9644C11.2429 10.9644 11.4011 11.1113 11.4067 11.3373L11.5762 17.3377C11.5875 17.5637 11.4293 17.7162 11.1863 17.7162ZM13 17.7162C12.7627 17.7162 12.6045 17.5693 12.6045 17.3433V11.3373C12.6045 11.1169 12.7627 10.9644 13 10.9644C13.2373 10.9644 13.4012 11.1169 13.4012 11.3373V17.3433C13.4012 17.5693 13.2373 17.7162 13 17.7162ZM14.8137 17.7219C14.5708 17.7219 14.4126 17.5637 14.4239 17.3433L14.5934 11.3373C14.599 11.1113 14.7572 10.9644 14.9832 10.9644C15.2205 10.9644 15.3787 11.1169 15.3731 11.3429L15.2036 17.3433C15.1979 17.5693 15.0397 17.7219 14.8137 17.7219Z" fill="#E59B9C"/>
</svg>
