<svg width="18" height="18" viewBox="0 0 18 18" fill="none" xmlns="http://www.w3.org/2000/svg">
<path d="M9 3.375C5.07449 3.375 1.672 5.66089 0 9C1.672 12.3391 5.07449 14.625 9 14.625C12.9254 14.625 16.3279 12.3391 18 9C16.328 5.66089 12.9254 3.375 9 3.375ZM13.4376 6.35808C14.4952 7.03262 15.3913 7.93614 16.0644 9C15.3913 10.0639 14.4951 10.9674 13.4376 11.6419C12.1088 12.4895 10.5743 12.9375 9 12.9375C7.4257 12.9375 5.8912 12.4895 4.5624 11.6419C3.5049 10.9673 2.60877 10.0638 1.93563 9C2.60873 7.9361 3.5049 7.03259 4.5624 6.35808C4.63127 6.31413 4.70085 6.27156 4.77084 6.22976C4.5958 6.71013 4.5 7.22858 4.5 7.76953C4.5 10.2548 6.51473 12.2695 9 12.2695C11.4852 12.2695 13.5 10.2548 13.5 7.76953C13.5 7.22858 13.4042 6.71013 13.2292 6.22972C13.2991 6.27152 13.3687 6.31413 13.4376 6.35808ZM9 7.20703C9 8.13902 8.24449 8.89453 7.3125 8.89453C6.38051 8.89453 5.625 8.13902 5.625 7.20703C5.625 6.27504 6.38051 5.51953 7.3125 5.51953C8.24449 5.51953 9 6.27504 9 7.20703Z" fill="#3F3F3F"/>
</svg>
