<svg width="15" height="15" viewBox="0 0 15 15" fill="none" xmlns="http://www.w3.org/2000/svg">
<path d="M2.76274 12.8617C2.58742 12.8614 2.42028 12.7874 2.30212 12.6579C2.18177 12.5295 2.12197 12.3557 2.13774 12.1804L2.29087 10.4967L9.36461 3.42541L11.5752 5.63541L4.50336 12.706L2.81962 12.8592C2.80024 12.861 2.78086 12.8617 2.76274 12.8617ZM12.0165 5.19354L9.80649 2.98354L11.1321 1.65791C11.2493 1.54055 11.4084 1.47461 11.5743 1.47461C11.7402 1.47461 11.8993 1.54055 12.0165 1.65791L13.3421 2.98354C13.4595 3.10077 13.5254 3.25985 13.5254 3.42573C13.5254 3.59161 13.4595 3.75068 13.3421 3.86791L12.0171 5.19291L12.0165 5.19354Z" fill="#3F3F3F"/>
</svg>
