<svg width="26" height="26" viewBox="0 0 26 26" fill="none" xmlns="http://www.w3.org/2000/svg">
<circle cx="13" cy="13" r="13" fill="#E59B9C"/>
<path d="M15.9082 8.7145L17.2849 10.0906L15.9082 8.7145ZM16.7935 7.50225L13.0709 11.2248C12.8786 11.4169 12.7474 11.6616 12.6939 11.9281L12.3501 13.6493L14.0713 13.3048C14.3378 13.2515 14.5822 13.1209 14.7746 12.9285L18.4971 9.2059C18.609 9.09404 18.6977 8.96124 18.7583 8.81508C18.8188 8.66892 18.85 8.51227 18.85 8.35408C18.85 8.19588 18.8188 8.03923 18.7583 7.89307C18.6977 7.74692 18.609 7.61411 18.4971 7.50225C18.3853 7.39039 18.2525 7.30165 18.1063 7.24111C17.9602 7.18057 17.8035 7.14941 17.6453 7.14941C17.4871 7.14941 17.3305 7.18057 17.1843 7.24111C17.0382 7.30165 16.9054 7.39039 16.7935 7.50225V7.50225Z" stroke="white" stroke-width="1.3" stroke-linecap="round" stroke-linejoin="round"/>
<path d="M17.55 14.9492V16.8992C17.55 17.244 17.4131 17.5747 17.1693 17.8185C16.9255 18.0623 16.5948 18.1992 16.25 18.1992H9.10005C8.75527 18.1992 8.42461 18.0623 8.18081 17.8185C7.93701 17.5747 7.80005 17.244 7.80005 16.8992V9.74922C7.80005 9.40444 7.93701 9.07378 8.18081 8.82998C8.42461 8.58618 8.75527 8.44922 9.10005 8.44922H11.05" stroke="white" stroke-width="1.3" stroke-linecap="round" stroke-linejoin="round"/>
</svg>
