<svg width="40" height="40" viewBox="0 0 40 40" fill="none" xmlns="http://www.w3.org/2000/svg">
<path d="M31.6667 35H8.33333C6.49238 35 5 33.5076 5 31.6667V8.33333C5 6.49238 6.49238 5 8.33333 5H31.6667C33.5076 5 35 6.49238 35 8.33333V31.6667C35 33.5076 33.5076 35 31.6667 35ZM8.33333 8.33333V31.6667H31.6667V8.33333H8.33333ZM30 28.3333H10L15 21.6667L16.6667 23.3333L21.6667 16.6667L30 28.3333ZM14.1667 18.3333C12.786 18.3333 11.6667 17.214 11.6667 15.8333C11.6667 14.4526 12.786 13.3333 14.1667 13.3333C15.5474 13.3333 16.6667 14.4526 16.6667 15.8333C16.6667 17.214 15.5474 18.3333 14.1667 18.3333Z" fill="#FBFBFD"/>
</svg>
