<svg width="20" height="20" viewBox="0 0 20 20" fill="none" xmlns="http://www.w3.org/2000/svg">
<path d="M1.65625 5.69925C2.26172 4.43753 3.11719 3.37112 4.19531 2.4844C5.65625 1.27737 7.33203 0.55081 9.21094 0.328154C11.418 0.066435 13.4922 0.484404 15.4102 1.63284C15.8867 1.918 16.332 2.24222 16.7578 2.59378C16.8633 2.67972 16.8516 2.7305 16.7617 2.81643C15.8906 3.68362 15.0195 4.55081 14.1562 5.42581C14.0547 5.52737 14 5.51956 13.8906 5.43753C11.3594 3.48831 7.66797 4.01565 5.78125 6.59378C5.44922 7.0469 5.17969 7.53519 4.99219 8.06644C4.97656 8.11331 4.94531 8.15628 4.92188 8.20315C4.41797 7.82034 3.91016 7.43753 3.41016 7.05081C2.82422 6.60159 2.23828 6.15237 1.65625 5.69925Z" fill="#E94335"/>
<path d="M4.92187 11.8672C5.08984 12.2383 5.23047 12.625 5.44141 12.9727C6.32812 14.4258 7.59375 15.3594 9.26172 15.6914C10.7656 15.9922 12.2109 15.7891 13.5586 15.0352C13.6055 15.0117 13.6523 14.9883 13.6953 14.9648C13.7188 14.9883 13.7383 15.0156 13.7617 15.0352C14.7695 15.8164 15.7812 16.5977 16.7891 17.3789C16.3047 17.8594 15.7539 18.2461 15.168 18.582C13.4687 19.5508 11.6289 19.9414 9.69141 19.793C7.27734 19.6055 5.19531 18.6523 3.47656 16.9336C2.72266 16.1797 2.10156 15.3281 1.65234 14.3555C2.07031 14.0352 2.48828 13.7188 2.90625 13.3984C3.57812 12.8867 4.25 12.3789 4.92187 11.8672Z" fill="#34A853"/>
<path d="M16.7927 17.3789C15.7849 16.5977 14.7732 15.8164 13.7654 15.0352C13.742 15.0156 13.7185 14.9883 13.699 14.9648C14.0466 14.6953 14.4021 14.4336 14.6873 14.0898C15.1638 13.5195 15.4802 12.875 15.6443 12.1523C15.6638 12.0625 15.6482 12.0313 15.5584 12.0352C15.5115 12.0391 15.4685 12.0352 15.4216 12.0352C13.8279 12.0352 12.2302 12.0313 10.6365 12.0391C10.4607 12.0391 10.4216 11.9922 10.4256 11.8242C10.4334 10.6914 10.4334 9.55859 10.4256 8.42578C10.4256 8.28125 10.4646 8.24219 10.6091 8.24219C13.531 8.24609 16.4529 8.24609 19.3787 8.24219C19.5037 8.24219 19.5545 8.27344 19.5857 8.40625C19.824 9.48047 19.8084 10.5586 19.6638 11.6445C19.5466 12.5117 19.3357 13.3516 19.0115 14.1641C18.531 15.3633 17.824 16.4102 16.8943 17.3086C16.8591 17.3359 16.824 17.3555 16.7927 17.3789Z" fill="#4285F3"/>
<path d="M4.92178 11.8672C4.24991 12.3789 3.57803 12.8867 2.90616 13.3984C2.48819 13.7148 2.07022 14.0352 1.65225 14.3555C1.32803 13.7539 1.1171 13.1172 0.945221 12.4609C0.617096 11.1914 0.566315 9.90234 0.746002 8.60937C0.886627 7.59375 1.1796 6.61719 1.65225 5.70312C2.23819 6.15234 2.82022 6.60547 3.40616 7.05469C3.91006 7.44141 4.41397 7.82422 4.91788 8.20703C4.83194 8.625 4.71085 9.03516 4.67178 9.46484C4.60147 10.2461 4.67569 11.0078 4.89835 11.7578C4.91397 11.7891 4.91788 11.8281 4.92178 11.8672Z" fill="#FABB06"/>
</svg>
