<svg width="24" height="24" viewBox="0 0 24 24" fill="none" xmlns="http://www.w3.org/2000/svg">
<path d="M19 22.0003H5C4.44772 22.0003 4 21.5526 4 21.0003V11.3573C4.01549 11.1123 4.11964 10.8812 4.293 10.7073L11.293 3.70735C11.4806 3.51957 11.7351 3.41406 12.0005 3.41406C12.2659 3.41406 12.5204 3.51957 12.708 3.70735L19.708 10.7073C19.8957 10.8946 20.0009 11.1492 20 11.4143V21.0003C20 21.5526 19.5523 22.0003 19 22.0003ZM12 5.82835L6 11.8283V20.0003H18V11.8283L12 5.82835ZM16 16.0003H8V14.0003H16V16.0003Z" fill="#FAF3F4"/>
</svg>
