<svg width="17" height="17" viewBox="0 0 17 17" fill="none" xmlns="http://www.w3.org/2000/svg">
<path fill-rule="evenodd" clip-rule="evenodd" d="M12.925 12.0395C12.8666 12.0408 12.8081 12.0414 12.7493 12.0414C8.44613 12.0414 4.95768 8.55298 4.95768 4.24976C4.95768 4.19105 4.95833 4.13247 4.95963 4.07405C3.66293 5.11288 2.83268 6.71009 2.83268 8.49974C2.83268 11.6294 5.36974 14.1664 8.49935 14.1664C10.289 14.1664 11.8862 13.3362 12.925 12.0395ZM13.7878 10.5406C13.4499 10.596 13.103 10.6248 12.7493 10.6248C9.22853 10.6248 6.37435 7.77058 6.37435 4.24976C6.37435 3.89613 6.40314 3.54922 6.45852 3.21125C6.5521 2.64004 6.7216 2.09438 6.95633 1.58496C6.3462 1.72051 5.7657 1.93475 5.22602 2.21647C2.9617 3.3985 1.41602 5.76862 1.41602 8.49974C1.41602 12.4118 4.58733 15.5831 8.49935 15.5831C11.2305 15.5831 13.6006 14.0374 14.7826 11.7731C15.0643 11.2334 15.2786 10.6529 15.4141 10.0428C14.9047 10.2775 14.359 10.447 13.7878 10.5406Z" fill="#979797"/>
</svg>
