<svg width="16" height="16" viewBox="0 0 16 16" fill="none" xmlns="http://www.w3.org/2000/svg">
<path d="M3.33317 12.083H2.1665C2.1665 10.15 3.73351 8.58301 5.6665 8.58301C7.5995 8.58301 9.1665 10.15 9.1665 12.083H7.99984C7.99984 10.7943 6.95517 9.74967 5.6665 9.74967C4.37784 9.74967 3.33317 10.7943 3.33317 12.083ZM12.0832 10.333H10.9165V8.58301H9.1665V7.41634H10.9165V5.66634H12.0832V7.41634H13.8332V8.58301H12.0832V10.333ZM5.6665 7.99967C4.37784 7.99967 3.33317 6.95501 3.33317 5.66634C3.33317 4.37768 4.37784 3.33301 5.6665 3.33301C6.95517 3.33301 7.99984 4.37768 7.99984 5.66634C7.99823 6.95434 6.9545 7.99807 5.6665 7.99967ZM5.6665 4.49967C5.02915 4.50032 4.51027 5.01234 4.50114 5.64962C4.49201 6.28691 4.996 6.81358 5.63307 6.83249C6.27015 6.8514 6.80449 6.35555 6.83317 5.71884V5.95217V5.66634C6.83317 5.02201 6.31084 4.49967 5.6665 4.49967Z" fill="#A4D1CC"/>
</svg>
