<svg width="24" height="24" viewBox="0 0 24 24" fill="none" xmlns="http://www.w3.org/2000/svg">
<path d="M12.8971 21.9675C12.366 21.9691 11.8565 21.7581 11.4821 21.3815L3.64805 13.5465C3.23464 13.1343 3.02266 12.5616 3.06805 11.9795L3.56805 5.41352C3.63935 4.42591 4.42625 3.64114 5.41405 3.57252L11.9801 3.07252C12.0311 3.06152 12.0831 3.06152 12.1341 3.06152C12.6639 3.06288 13.1718 3.2735 13.5471 3.64752L21.3821 11.4815C21.7573 11.8566 21.9681 12.3654 21.9681 12.896C21.9681 13.4266 21.7573 13.9354 21.3821 14.3105L14.3111 21.3815C13.9369 21.7578 13.4277 21.9688 12.8971 21.9675ZM12.1331 5.06152L5.56205 5.56152L5.06205 12.1325L12.8971 19.9675L19.9671 12.8975L12.1331 5.06152ZM8.65405 10.6535C7.69989 10.6537 6.87847 9.97988 6.69213 9.04409C6.5058 8.1083 7.00646 7.17121 7.88792 6.8059C8.76939 6.4406 9.78615 6.74884 10.3164 7.54211C10.8466 8.33537 10.7426 9.39273 10.0681 10.0675C9.69388 10.4438 9.18473 10.6548 8.65405 10.6535Z" fill="#FAF3F4"/>
</svg>
