<svg width="24" height="24" viewBox="0 0 24 24" fill="none" xmlns="http://www.w3.org/2000/svg">
<path d="M10.7501 22.0002H4.91705C3.76655 21.9991 2.83415 21.0667 2.83305 19.9162V10.2162C2.01626 9.63654 1.76196 8.53768 2.24105 7.65816C3.14105 6.05016 4.05905 4.46516 4.96205 2.94616C5.32422 2.35316 5.97123 1.99396 6.66605 2.00008C7.08957 2.00438 7.50154 2.13879 7.84605 2.38516L7.87005 2.40016C8.28205 2.64016 12.2621 5.00916 15.4611 6.91216L18.3001 8.60016L18.4301 8.67716C20.6481 9.98816 21.1471 10.2862 21.1751 10.3052C21.9916 10.8833 22.2427 11.9829 21.7581 12.8582C20.8751 14.4352 19.9581 16.0202 19.0371 17.5702C18.6796 18.1567 18.044 18.5165 17.3571 18.5212C17.2225 18.5212 17.0883 18.5061 16.9571 18.4762C16.8411 18.5452 16.2011 18.9562 15.3901 19.4762C13.9471 20.4012 11.9751 21.6662 11.7471 21.7832C11.4394 21.9415 11.0956 22.0163 10.7501 22.0002ZM4.50005 13.0302V19.9162C4.50005 20.1465 4.68675 20.3332 4.91705 20.3332H8.74005C7.28705 17.8802 5.86105 15.4222 4.50005 13.0302ZM5.85805 12.0302C6.25805 12.7172 10.5741 20.1622 10.6101 20.2122C10.6669 20.286 10.7549 20.3292 10.8481 20.3292C10.8972 20.3292 10.9456 20.3172 10.9891 20.2942C11.1241 20.2182 15.1831 17.6102 15.2231 17.5842C14.9091 17.3992 12.6371 16.0452 10.2311 14.6122L5.83805 12.0002L5.84505 12.0112L5.85505 12.0282V12.0342L5.85805 12.0302ZM6.33205 3.90016C5.52405 5.20016 3.71605 8.42816 3.69205 8.48716C3.63276 8.62881 3.68536 8.79254 3.81605 8.87316C3.94905 8.95216 17.1701 16.8292 17.2961 16.8492C17.312 16.8503 17.3281 16.8503 17.3441 16.8492C17.4527 16.8495 17.5536 16.793 17.6101 16.7002C18.4241 15.3332 20.2991 12.0432 20.3041 12.0332C20.362 11.8909 20.3092 11.7276 20.1791 11.6462C20.0521 11.5702 6.85605 3.72816 6.77105 3.69116C6.73242 3.67489 6.69097 3.66639 6.64905 3.66616C6.54374 3.66673 6.44574 3.72005 6.38805 3.80816L6.38105 3.82016L6.37305 3.83216L6.36105 3.85216V3.85716L6.34605 3.88116L6.33105 3.90016H6.33205ZM7.68505 9.39016C6.7656 9.3896 6.02042 8.64427 6.02006 7.72482C6.01969 6.80536 6.76427 6.05944 7.68372 6.05816C8.60318 6.05687 9.34984 6.8007 9.35205 7.72016C9.35095 8.64036 8.60525 9.38605 7.68505 9.38716V9.39016Z" fill="#FAF3F4"/>
</svg>
