<svg width="15" height="15" viewBox="0 0 15 15" fill="none" xmlns="http://www.w3.org/2000/svg">
<path d="M7.49494 0.349017C7.4701 0.421061 6.31033 4.1847 5.95893 5.33118L5.86828 5.6268H3.2321C1.78177 5.6268 0.595927 5.63053 0.597169 5.6355C0.597169 5.64171 0.625729 5.66655 0.659255 5.69263C0.694023 5.71872 1.36828 6.23668 2.15801 6.84284C2.94775 7.449 3.87159 8.15576 4.20934 8.41413C4.54709 8.67249 4.83144 8.8911 4.84013 8.89855C4.85255 8.90973 4.6874 9.45751 4.04171 11.5567C3.59469 13.0112 3.22962 14.2024 3.2321 14.2049C3.23335 14.2061 3.27681 14.1763 3.32772 14.1378C3.45065 14.0459 5.81861 12.2324 6.75859 11.5107L7.50114 10.9406L7.54709 10.9754C7.57192 10.994 7.84138 11.2002 8.1456 11.4337C8.59634 11.779 11.4362 13.9552 11.7019 14.1577L11.7752 14.2148L11.7665 14.1776C11.7615 14.1577 11.3977 12.969 10.9569 11.5356C10.516 10.1022 10.1584 8.92215 10.1609 8.91222C10.1646 8.90352 10.3348 8.76937 10.5384 8.61287C10.8165 8.40046 13.1944 6.57578 14.3083 5.7212C14.3604 5.68145 14.4039 5.64295 14.4039 5.63674C14.4039 5.63177 13.2193 5.6268 11.7714 5.6268H9.14022L9.08434 5.44918C9.0533 5.35229 8.82358 4.60702 8.57399 3.79467C7.82151 1.34893 7.50984 0.341564 7.50487 0.336596C7.50239 0.334112 7.49742 0.339081 7.49494 0.349017Z" fill="#F3D80B"/>
</svg>
