<svg width="70" height="70" viewBox="0 0 70 70" fill="none" xmlns="http://www.w3.org/2000/svg">
<path d="M5.83398 55.417H11.6673C11.6673 48.9737 16.8907 43.7503 23.334 43.7503C29.7773 43.7503 35.0007 48.9737 35.0007 55.417H40.834C40.834 45.752 32.999 37.917 23.334 37.917C13.669 37.917 5.83398 45.752 5.83398 55.417Z" fill="#BA83FF"/>
<path d="M11.6673 23.3337C11.6673 16.8903 16.8907 11.667 23.334 11.667C29.7773 11.667 35.0007 16.8903 35.0007 23.3337C34.9926 29.7736 29.774 34.9923 23.334 35.0003C16.8907 35.0003 11.6673 29.777 11.6673 23.3337ZM17.5072 23.2501C17.4615 26.4365 19.9815 29.0699 23.1668 29.1644C26.3522 29.259 29.0239 26.7797 29.1673 23.5962V23.3337C29.1673 20.112 26.5556 17.5003 23.334 17.5003C20.1472 17.5036 17.5528 20.0636 17.5072 23.2501Z" fill="#BA83FF"/>
<path d="M53.4894 43.7486C52.8827 43.2091 52.1973 42.6461 51.4711 42.0511L51.334 41.9403L51.3178 41.9271C47.9459 39.176 43.7507 35.7531 43.7507 31.4986C43.7511 30.0868 44.3202 28.7347 45.3294 27.7474C46.3386 26.7602 47.7029 26.221 49.1144 26.2516C50.7833 26.2471 52.3749 26.9548 53.4894 28.197C54.6042 26.9551 56.1956 26.2474 57.8644 26.2516C59.2744 26.2241 60.6361 26.7651 61.6429 27.7527C62.6496 28.7402 63.2168 30.0913 63.2165 31.5016C63.2165 35.7737 58.9888 39.2219 55.5894 41.9944L55.5807 42.0016L55.4144 42.1386L55.3614 42.1821C54.6898 42.7318 54.0549 43.2515 53.4865 43.7545L53.4894 43.7486Z" fill="#BA83FF"/>
</svg>
