<svg width="16" height="16" viewBox="0 0 16 16" fill="none" xmlns="http://www.w3.org/2000/svg">
<path d="M8.00002 14.1326H7.97027C7.88337 14.1257 7.80072 14.0898 7.73402 14.03C7.71575 14.0134 7.69896 13.9951 7.68386 13.9752L2.26469 7.08471C2.22243 7.0332 2.1926 6.97147 2.17777 6.90488C2.17777 6.89679 2.17427 6.88871 2.17252 6.88062C2.156 6.77638 2.17682 6.66933 2.23086 6.58071L2.24194 6.56328L4.35944 3.36817C4.36702 3.35573 4.37461 3.34453 4.38336 3.33457C4.4453 3.25606 4.53124 3.20339 4.62602 3.18586C4.64224 3.18322 4.65861 3.18177 4.67502 3.18151L7.97085 2.93262H8.00002H8.0286L11.325 3.18151C11.3432 3.18261 11.3614 3.1851 11.3793 3.18897C11.4833 3.20962 11.5757 3.27253 11.6371 3.36444L13.7587 6.56515C13.7631 6.57135 13.7672 6.57779 13.7709 6.58444C13.8195 6.66376 13.8415 6.75827 13.8334 6.85262C13.8309 6.8768 13.8266 6.90073 13.8205 6.92417C13.8046 6.98383 13.7763 7.0389 13.7377 7.08533L8.31677 13.9746C8.30775 13.9866 8.29801 13.9981 8.2876 14.0088C8.25355 14.0441 8.21409 14.0729 8.17094 14.094C8.13553 14.1111 8.09801 14.1226 8.05952 14.1283C8.0398 14.1312 8.01993 14.1326 8.00002 14.1326ZM5.63519 7.23279L8.00002 12.6785L10.3649 7.23279H5.63519ZM11.2585 7.23279L9.64736 10.9431L12.564 7.23279H11.2585ZM3.43427 7.23279L6.35094 10.9431L4.74152 7.23279H3.43427ZM11.598 4.79555L11.4464 6.38284H12.6492L11.598 4.79555ZM8.00002 4.09555L6.17535 6.38284H9.82469L8.00002 4.09555ZM4.40202 4.79555L3.35086 6.38284H4.55369L4.40202 4.79555ZM8.86161 3.84791L10.6548 6.09599L10.8584 3.99724L8.86161 3.84791ZM7.13727 3.84791L5.14169 3.99724L5.34294 6.09599L7.13727 3.84791Z" fill="#A4D1CC"/>
</svg>
